<svg height="453pt" viewBox="-1 0 453 453.24248" width="453pt" xmlns="http://www.w3.org/2000/svg"><path d="m436.929688.753906-430.617188 177.347656c-3.804688 1.566407-6.2578125 5.300782-6.191406 9.414063.070312 4.113281 2.648437 7.761719 6.503906 9.199219l182.738281 68.203125 70.691407 181.945312c1.488281 3.835938 5.175781 6.367188 9.289062 6.378907h.03125c4.105469 0 7.792969-2.503907 9.300781-6.320313l171.359375-433.242187c1.476563-3.730469.578125-7.984376-2.277344-10.800782-2.855468-2.816406-7.121093-3.652344-10.828124-2.125zm-167.472657 415.09375-60.726562-156.320312 60.246093-61.132813c3.878907-3.933593 3.832032-10.265625-.105468-14.140625-3.933594-3.878906-10.265625-3.832031-14.140625.105469l-60.246094 61.125-156.992187-58.59375 385.289062-158.679687zm0 0"/></svg>